<?xml version="1.0" encoding="UTF-8"?>
<svg width="48px" height="49px" viewBox="0 0 48 49" version="1.1" xmlns="http://www.w3.org/2000/svg" xmlns:xlink="http://www.w3.org/1999/xlink">
    <!-- Generator: Sketch 46.2 (44496) - http://www.bohemiancoding.com/sketch -->
    <title>FB</title>
    <desc>Created with Sketch.</desc>
    <defs></defs>
    <g id="Symbols" stroke="none" stroke-width="1" fill="none" fill-rule="evenodd">
        <g id="site-footer" transform="translate(-460.000000, -104.000000)">
            <g transform="translate(0.000000, 104.000000)" id="Group-2">
                <g transform="translate(383.000000, 0.000000)">
                    <g id="FB" transform="translate(77.000000, 0.824216)">
                        <circle id="Oval-2" fill="#FFFFFF" cx="24" cy="24" r="24"></circle>
                        <path d="M20.612,37.056 L26.0072,37.056 L26.0072,23.9984 L29.6064,23.9984 L30.0832,19.4992 L26.0072,19.4992 L26.0128,17.2464 C26.0128,16.0736 26.1248,15.444 27.808,15.444 L30.0576,15.444 L30.0576,10.944 L26.4576,10.944 C22.1336,10.944 20.612,13.1272 20.612,16.7976 L20.612,19.4992 L17.9168,19.4992 L17.9168,23.9992 L20.612,23.9992 L20.612,37.056 L20.612,37.056 Z M0,24 C0,10.7448 10.7456,0 24,0 C37.2544,0 48,10.7448 48,24 C48,37.2544 37.2544,48 24,48 C10.7456,48 0,37.2544 0,24 Z" id="Shape" fill="#CA2A4B"></path>
                    </g>
                </g>
            </g>
        </g>
    </g>
</svg>