<svg xmlns="http://www.w3.org/2000/svg" width="48" height="49" viewBox="0 0 48 49">
    <g fill="none" fill-rule="evenodd">
        <path fill="#CA2A4B" d="M0 .824h47.999v48H0z"/>
        <g fill="#FFF">
            <path d="M8.864 15.316h.963c.28 0 .47-.053.566-.159.097-.105.145-.254.145-.448V8.634h2.886v6.563c0 .817-.187 1.392-.56 1.726-.373.334-.969.5-1.785.5H8.865v-2.107zM15.638 8.634h2.978v8.79h-2.978zM20.856 8.634h2.306l2.425 3.387V8.634h2.754v8.79h-2.32l-2.411-3.373v3.373h-2.754zM11.144 20.348h2.109l3.334 8.79h-2.768l-.29-.79h-2.662l-.29.79H7.81l3.334-8.79zm1.647 6.062l-.592-1.542-.594 1.542h1.186zM18.102 20.348h2.306l2.425 3.387v-3.387h2.754v8.79h-2.32l-2.411-3.373v3.373h-2.754zM27.827 29.138v-8.79h2.437c.826 0 1.562.093 2.208.277.645.185 1.19.462 1.634.83a3.58 3.58 0 0 1 1.015 1.377c.233.55.349 1.185.349 1.905s-.116 1.355-.35 1.904a3.581 3.581 0 0 1-1.014 1.377c-.444.369-.988.648-1.634.837-.646.189-1.382.283-2.208.283h-2.437zm2.807-2.504c.659 0 1.168-.156 1.528-.467.36-.312.54-.79.54-1.43 0-.641-.18-1.116-.54-1.423-.36-.308-.87-.462-1.528-.462v3.782zM8.337 36.464c0-.703.123-1.337.37-1.904a4.431 4.431 0 0 1 1-1.457 4.367 4.367 0 0 1 1.477-.929 4.974 4.974 0 0 1 1.792-.322c.5 0 .946.048 1.337.145.39.097.727.206 1.008.33.325.14.607.294.844.46l-1.384 2.438a4.88 4.88 0 0 0-.46-.303 4.487 4.487 0 0 0-.535-.204 2.313 2.313 0 0 0-.705-.1 1.91 1.91 0 0 0-1.35.541 1.821 1.821 0 0 0-.548 1.304c0 .255.05.495.152.718.1.225.239.42.415.587.176.167.382.299.62.395.236.097.496.145.777.145.28 0 .532-.035.751-.105.22-.07.404-.15.553-.238a2 2 0 0 0 .461-.342l1.384 2.438a3.925 3.925 0 0 1-.843.514c-.281.123-.62.237-1.015.343a5.296 5.296 0 0 1-1.357.158 5.237 5.237 0 0 1-1.898-.336 4.475 4.475 0 0 1-1.502-.943 4.284 4.284 0 0 1-.988-1.455 4.817 4.817 0 0 1-.356-1.878zM16.956 36.464c0-.633.12-1.23.362-1.792s.57-1.053.988-1.47a4.653 4.653 0 0 1 1.47-.988 4.49 4.49 0 0 1 1.792-.362c.633 0 1.23.12 1.792.362a4.66 4.66 0 0 1 1.47.988c.417.417.746.908.988 1.47.241.562.362 1.16.362 1.792 0 .633-.12 1.23-.362 1.792a4.656 4.656 0 0 1-.988 1.47 4.646 4.646 0 0 1-1.47.988 4.484 4.484 0 0 1-1.792.362c-.633 0-1.23-.12-1.792-.362a4.65 4.65 0 0 1-1.47-.989 4.64 4.64 0 0 1-.988-1.469 4.489 4.489 0 0 1-.362-1.792zm2.767 0c0 .255.048.494.145.718a1.862 1.862 0 0 0 .981.982c.224.096.463.145.718.145.255 0 .495-.048.719-.145a1.861 1.861 0 0 0 .982-.982c.096-.224.144-.463.144-.718 0-.255-.048-.494-.144-.718a1.862 1.862 0 0 0-.982-.982 1.8 1.8 0 0 0-.719-.145 1.851 1.851 0 0 0-1.845 1.845z"/>
        </g>
    </g>
</svg>
