<?xml version="1.0" encoding="UTF-8"?>
<svg width="48px" height="49px" viewBox="0 0 48 49" version="1.1" xmlns="http://www.w3.org/2000/svg" xmlns:xlink="http://www.w3.org/1999/xlink">
    <!-- Generator: Sketch 46.2 (44496) - http://www.bohemiancoding.com/sketch -->
    <title>JinAndCo</title>
    <desc>Created with Sketch.</desc>
    <defs></defs>
    <g id="Symbols" stroke="none" stroke-width="1" fill="none" fill-rule="evenodd">
        <g id="site-footer" transform="translate(-922.000000, -104.000000)">
            <g transform="translate(0.000000, 104.000000)" id="Footer">
                <g transform="translate(0.000000, 0.824216)">
                    <g id="JinAndCo" transform="translate(922.000000, 0.000000)">
                        <rect id="Rectangle-path" fill="#CA2A4B" x="0.000480000001" y="0" width="47.99904" height="48"></rect>
                        <g id="Group" transform="translate(7.680000, 7.680000)" fill="#FFFFFF">
                            <path d="M1.1844,6.81144 L2.14656,6.81144 C2.4276,6.81144 2.61648,6.75888 2.7132,6.65328 C2.80968,6.54768 2.85816,6.3984 2.85816,6.2052 L2.85816,0.13008 L5.7444,0.13008 L5.7444,6.6924 C5.7444,7.5096 5.55744,8.08512 5.184,8.41896 C4.81056,8.75304 4.21536,8.9196 3.39864,8.9196 L1.18464,8.9196 L1.18464,6.81144 L1.1844,6.81144 Z" id="Shape"></path>
                            <polygon id="Shape" points="7.95768 0.13008 10.93632 0.13008 10.93632 8.91984 7.95768 8.91984"></polygon>
                            <polygon id="Shape" points="13.176 0.13008 15.48216 0.13008 17.90664 3.51672 17.90664 0.13008 20.66088 0.13008 20.66088 8.91984 18.34152 8.91984 15.93 5.5464 15.93 8.91984 13.176 8.91984"></polygon>
                            <path d="M3.46392,11.84424 L5.5728,11.84424 L8.90688,20.634 L6.1392,20.634 L5.84952,19.84344 L3.18744,19.84344 L2.89728,20.634 L0.13032,20.634 L3.46392,11.84424 L3.46392,11.84424 Z M5.11128,17.90616 L4.51872,16.36416 L3.9252,17.90616 L5.11128,17.90616 L5.11128,17.90616 Z" id="Shape"></path>
                            <polygon id="Shape" points="10.42224 11.84424 12.7284 11.84424 15.15288 15.23112 15.15288 11.84424 17.90712 11.84424 17.90712 20.634 15.58752 20.634 13.176 17.26032 13.176 20.634 10.42224 20.634"></polygon>
                            <path d="M20.1468,20.634 L20.1468,11.84424 L22.58448,11.84424 C23.41032,11.84424 24.1464,11.9364 24.79176,12.12096 C25.43736,12.30552 25.98192,12.58248 26.42592,12.95136 C26.86968,13.32024 27.2076,13.77936 27.44064,14.328 C27.67368,14.8776 27.78984,15.5124 27.78984,16.2324 C27.78984,16.95288 27.67368,17.58744 27.44064,18.13656 C27.2076,18.68568 26.86968,19.1448 26.42592,19.51392 C25.98192,19.88256 25.4376,20.16168 24.79176,20.35056 C24.1464,20.53968 23.41032,20.634 22.58448,20.634 L20.1468,20.634 L20.1468,20.634 Z M22.95384,18.13008 C23.61264,18.13008 24.12192,17.97408 24.4824,17.66232 C24.84264,17.35032 25.02264,16.87368 25.02264,16.2324 C25.02264,15.59136 24.84264,15.11712 24.4824,14.80944 C24.12192,14.502 23.61264,14.34792 22.95384,14.34792 L22.95384,18.13008 L22.95384,18.13008 Z" id="Shape"></path>
                            <path d="M0.65736,27.95976 C0.65736,27.2568 0.78024,26.62248 1.02648,26.0556 C1.272,25.48872 1.60608,25.0032 2.02776,24.59904 C2.44944,24.19512 2.94144,23.88552 3.50352,23.67024 C4.0656,23.4552 4.66344,23.34768 5.2956,23.34768 C5.79672,23.34768 6.24192,23.39568 6.63312,23.4924 C7.02384,23.58936 7.35984,23.6988 7.64136,23.82192 C7.96632,23.96208 8.2476,24.1164 8.48496,24.28296 L7.10112,26.72088 C6.96048,26.61576 6.80616,26.51496 6.64008,26.418 C6.49056,26.34768 6.312,26.27952 6.10608,26.21352 C5.89944,26.14752 5.66472,26.11464 5.4012,26.11464 C5.12856,26.11464 4.87824,26.16312 4.65,26.2596 C4.42152,26.35584 4.22184,26.48784 4.05024,26.65488 C3.87936,26.82168 3.7452,27.01704 3.64824,27.2412 C3.55152,27.46512 3.50328,27.70464 3.50328,27.95928 C3.50328,28.21416 3.55344,28.45344 3.65496,28.67712 C3.75552,28.90152 3.894,29.09712 4.06992,29.26368 C4.2456,29.43048 4.452,29.56248 4.68912,29.65896 C4.92624,29.75568 5.18568,29.80392 5.46696,29.80392 C5.74752,29.80392 5.99856,29.76912 6.21816,29.69832 C6.43728,29.62824 6.62184,29.54928 6.77136,29.4612 C6.94704,29.3652 7.10088,29.25072 7.2324,29.11872 L8.61624,31.55688 C8.37912,31.74984 8.09808,31.92168 7.77312,32.07096 C7.49184,32.19384 7.15344,32.30808 6.75816,32.41344 C6.36312,32.51856 5.91024,32.57136 5.4012,32.57136 C4.716,32.57136 4.08336,32.45928 3.50328,32.23584 C2.92368,32.01168 2.42256,31.69752 2.00088,31.29312 C1.57968,30.8892 1.25016,30.40392 1.0128,29.83752 C0.77568,29.27112 0.65736,28.64496 0.65736,27.95976 L0.65736,27.95976 Z" id="Shape"></path>
                            <path d="M9.27552,27.95976 C9.27552,27.32712 9.39624,26.73 9.63816,26.16744 C9.8796,25.60536 10.20888,25.11528 10.62648,24.69816 C11.0436,24.28104 11.5332,23.95152 12.09552,23.70984 C12.65784,23.46816 13.25544,23.34768 13.8876,23.34768 C14.52072,23.34768 15.1176,23.46792 15.67992,23.70984 C16.24224,23.95152 16.73232,24.28104 17.14968,24.69816 C17.5668,25.11528 17.89608,25.60536 18.138,26.16744 C18.37944,26.73 18.50016,27.32712 18.50016,27.95976 C18.50016,28.5924 18.37944,29.18976 18.138,29.75184 C17.89608,30.3144 17.5668,30.804 17.14968,31.22112 C16.73256,31.63872 16.24248,31.96776 15.67992,32.20944 C15.11784,32.45136 14.52072,32.57184 13.8876,32.57184 C13.25544,32.57184 12.65784,32.45136 12.09552,32.20944 C11.53344,31.96776 11.04384,31.63872 10.62648,31.22112 C10.20888,30.804 9.8796,30.3144 9.63816,29.75184 C9.39648,29.18976 9.27552,28.5924 9.27552,27.95976 L9.27552,27.95976 Z M12.04272,27.95976 C12.04272,28.21464 12.0912,28.45392 12.18768,28.6776 C12.28464,28.902 12.4164,29.0976 12.58344,29.26416 C12.75,29.43096 12.9456,29.56296 13.16928,29.65944 C13.3932,29.75616 13.63248,29.8044 13.88736,29.8044 C14.14224,29.8044 14.38152,29.7564 14.60592,29.65944 C14.83008,29.56296 15.02544,29.43096 15.19224,29.26416 C15.35928,29.0976 15.4908,28.90176 15.58752,28.6776 C15.684,28.45368 15.73248,28.21464 15.73248,27.95976 C15.73248,27.70488 15.684,27.46536 15.58752,27.24168 C15.4908,27.01728 15.35904,26.82216 15.19224,26.65536 C15.0252,26.48832 14.83008,26.35632 14.60592,26.26008 C14.38152,26.1636 14.14224,26.11512 13.88736,26.11512 C13.63248,26.11512 13.3932,26.1636 13.16928,26.26008 C12.94536,26.35632 12.75,26.48832 12.58344,26.65536 C12.4164,26.82216 12.2844,27.01752 12.18768,27.24168 C12.0912,27.46536 12.04272,27.70512 12.04272,27.95976 L12.04272,27.95976 Z" id="Shape"></path>
                        </g>
                    </g>
                </g>
            </g>
        </g>
    </g>
</svg>